<svg width="720" height="560" viewBox="0 0 720 560" fill="none" xmlns="http://www.w3.org/2000/svg" role="img" aria-labelledby="titulo descripcion">
  <title id="titulo">Ilustracion de apoyo psicologico</title>
  <desc id="descripcion">Dos personas conversando en un entorno tranquilo con elementos de bienestar y seguridad.</desc>
  <rect width="720" height="560" rx="44" fill="url(#fondo)"/>
  <circle cx="570" cy="98" r="86" fill="#DBEAFE" opacity=".75"/>
  <circle cx="116" cy="432" r="112" fill="#CFFAFE" opacity=".72"/>
  <path d="M118 400c48-116 148-172 282-166 114 6 190 62 230 168" stroke="#93C5FD" stroke-width="38" stroke-linecap="round" opacity=".42"/>
  <rect x="140" y="136" width="440" height="304" rx="36" fill="white" opacity=".94"/>
  <rect x="170" y="166" width="380" height="244" rx="28" fill="#F8FAFC"/>
  <path d="M214 230c22-33 58-50 107-50h78c54 0 94 19 120 56" stroke="#2563EB" stroke-width="20" stroke-linecap="round"/>
  <circle cx="284" cy="248" r="54" fill="#BFDBFE"/>
  <circle cx="444" cy="248" r="54" fill="#C7D2FE"/>
  <path d="M248 322c18-32 42-48 72-48s55 16 75 48" stroke="#1D4ED8" stroke-width="18" stroke-linecap="round"/>
  <path d="M408 322c18-32 42-48 72-48s55 16 75 48" stroke="#4F46E5" stroke-width="18" stroke-linecap="round"/>
  <circle cx="266" cy="238" r="8" fill="#1E293B"/>
  <circle cx="306" cy="238" r="8" fill="#1E293B"/>
  <path d="M267 268c14 12 30 12 46 0" stroke="#1E293B" stroke-width="7" stroke-linecap="round"/>
  <circle cx="426" cy="238" r="8" fill="#1E293B"/>
  <circle cx="466" cy="238" r="8" fill="#1E293B"/>
  <path d="M426 268c15 12 31 12 47 0" stroke="#1E293B" stroke-width="7" stroke-linecap="round"/>
  <rect x="236" y="358" width="248" height="42" rx="21" fill="#DBEAFE"/>
  <circle cx="262" cy="379" r="8" fill="#2563EB"/>
  <rect x="282" y="373" width="168" height="12" rx="6" fill="#60A5FA"/>
  <path d="M580 210c26 0 47 21 47 47s-21 47-47 47-47-21-47-47 21-47 47-47Z" fill="#ECFEFF"/>
  <path d="M566 257l12 12 26-31" stroke="#0891B2" stroke-width="10" stroke-linecap="round" stroke-linejoin="round"/>
  <path d="M108 238c0-31 25-56 56-56h8v112h-8c-31 0-56-25-56-56Z" fill="#E0F2FE"/>
  <path d="M160 201c26 16 45 40 53 70" stroke="#0EA5E9" stroke-width="11" stroke-linecap="round"/>
  <defs>
    <linearGradient id="fondo" x1="84" y1="34" x2="664" y2="520" gradientUnits="userSpaceOnUse">
      <stop stop-color="#EFF6FF"/>
      <stop offset=".48" stop-color="#EEF2FF"/>
      <stop offset="1" stop-color="#ECFEFF"/>
    </linearGradient>
  </defs>
</svg>
